<svg width="24" height="24" viewBox="0 0 24 24" xmlns="http://www.w3.org/2000/svg">
<path d="M11.2998 2C11.1729 2.00008 11.0485 2.033 10.9397 2.09523C10.831 2.15747 10.742 2.24668 10.6824 2.35333L5.08251 12.3538C5.02556 12.4553 4.99721 12.5692 5.00022 12.6843C5.00322 12.7994 5.03748 12.9118 5.09965 13.0106C5.16182 13.1093 5.24978 13.1911 5.35497 13.2478C5.46016 13.3046 5.579 13.3344 5.69989 13.3344H9.08433L7.80826 21.2329C7.78517 21.3771 7.81241 21.5246 7.8858 21.6527C7.95918 21.7808 8.07466 21.8824 8.21451 21.9419C8.35437 22.0015 8.51088 22.0157 8.66003 21.9824C8.80919 21.9491 8.94275 21.8701 9.04024 21.7576L18.8408 10.4231C18.9249 10.3256 18.9783 10.2073 18.9947 10.0821C19.011 9.95679 18.9897 9.82967 18.9331 9.71548C18.8766 9.6013 18.7872 9.50475 18.6753 9.43707C18.5634 9.36939 18.4336 9.33336 18.3011 9.33317H13.8792L17.5143 2.98598C17.5724 2.88449 17.6019 2.77034 17.5997 2.65475C17.5975 2.53915 17.5638 2.42608 17.5019 2.32663C17.44 2.22719 17.352 2.14478 17.2465 2.08752C17.1411 2.03025 17.0218 2.00009 16.9004 2H11.2998Z"/>
</svg>
