<svg width="24" height="25" viewBox="0 0 24 25" xmlns="http://www.w3.org/2000/svg">
<g clip-path="url(#clip0_1_3477)">
<path d="M9.99981 19.1C9.76615 19.1004 9.53972 19.0191 9.35981 18.87C9.25855 18.786 9.17485 18.6829 9.11349 18.5666C9.05214 18.4502 9.01435 18.3229 9.00227 18.1919C8.99019 18.061 9.00408 17.9289 9.04312 17.8033C9.08217 17.6777 9.1456 17.561 9.22981 17.46L13.7098 12.1L9.38981 6.72998C9.30674 6.62769 9.24471 6.50999 9.20728 6.38365C9.16985 6.25731 9.15775 6.12482 9.17169 5.99379C9.18563 5.86277 9.22533 5.73578 9.2885 5.62015C9.35168 5.50451 9.43708 5.4025 9.53981 5.31998C9.64327 5.22894 9.76444 5.16027 9.8957 5.11828C10.027 5.0763 10.1655 5.06189 10.3026 5.07598C10.4397 5.09006 10.5724 5.13233 10.6924 5.20013C10.8123 5.26793 10.917 5.3598 10.9998 5.46998L15.8298 11.47C15.9769 11.6489 16.0573 11.8734 16.0573 12.105C16.0573 12.3366 15.9769 12.561 15.8298 12.74L10.8298 18.74C10.7295 18.861 10.6021 18.9567 10.4578 19.0192C10.3136 19.0818 10.1567 19.1094 9.99981 19.1Z"/>
</g>
<defs>
<clipPath id="clip0_1_3477">
<rect width="24" height="24" transform="translate(0 0.0999756)"/>
</clipPath>
</defs>
</svg>
