<svg width="160" height="28" viewBox="0 0 160 28" fill="none" xmlns="http://www.w3.org/2000/svg">
<path opacity="0.4" d="M12.4443 23.6445C12.0667 24.6757 11.1339 25.4918 9.95532 25.8223C11.1339 26.1527 12.0667 26.9689 12.4443 28C12.822 26.9689 13.7545 26.1527 14.933 25.8223C13.7545 25.4918 12.822 24.676 12.4443 23.6445Z" fill="#426AFF"/>
<path d="M18.6663 0C17.8716 4.42119 14.3764 7.91624 9.95532 8.7111C14.3764 9.50562 17.8716 13.001 18.6663 17.4219C19.4609 13.0007 22.9561 9.50562 27.3772 8.7111C22.9561 7.91624 19.4609 4.42119 18.6663 0Z" fill="#426AFF"/>
<path opacity="0.7" d="M4.35547 11.8224C3.84106 14.123 2.14738 15.9378 0 16.4889C2.14738 17.04 3.84139 18.8549 4.35547 21.1555C4.86987 18.8549 6.56355 17.04 8.71093 16.4889C6.56355 15.9378 4.86987 14.123 4.35547 11.8224Z" fill="#426AFF"/>
<path d="M159.025 10.0155V12.501H151.841V10.0155H159.025ZM153.472 7.15729H156.781V18.2796C156.781 18.5851 156.827 18.8233 156.92 18.9942C157.014 19.1599 157.143 19.2764 157.309 19.3437C157.48 19.411 157.676 19.4447 157.899 19.4447C158.054 19.4447 158.21 19.4317 158.365 19.4058C158.52 19.3748 158.639 19.3515 158.722 19.3359L159.243 21.7981C159.077 21.8498 158.844 21.9094 158.544 21.9767C158.243 22.0492 157.878 22.0932 157.448 22.1087C156.651 22.1398 155.952 22.0337 155.351 21.7903C154.756 21.5469 154.292 21.1689 153.961 20.6563C153.63 20.1437 153.467 19.4964 153.472 18.7146V7.15729Z" fill="white"/>
<path d="M145.045 22.1786C143.817 22.1786 142.761 21.9301 141.876 21.433C140.995 20.9307 140.317 20.2214 139.841 19.3049C139.364 18.3832 139.126 17.2932 139.126 16.035C139.126 14.8078 139.364 13.7307 139.841 12.8039C140.317 11.877 140.988 11.1547 141.852 10.6369C142.722 10.1191 143.742 9.8602 144.913 9.8602C145.7 9.8602 146.432 9.98706 147.111 10.2408C147.794 10.4893 148.39 10.8647 148.897 11.367C149.41 11.8693 149.808 12.501 150.093 13.2621C150.378 14.0181 150.52 14.9036 150.52 15.9184V16.8272H140.447V14.7767H147.406C147.406 14.3003 147.302 13.8783 147.095 13.5107C146.888 13.143 146.601 12.8557 146.233 12.6485C145.871 12.4362 145.449 12.3301 144.967 12.3301C144.465 12.3301 144.019 12.4466 143.631 12.6796C143.248 12.9074 142.948 13.2155 142.73 13.6039C142.513 13.9871 142.401 14.4142 142.396 14.8854V16.835C142.396 17.4252 142.505 17.9353 142.722 18.365C142.945 18.7948 143.258 19.1262 143.662 19.3592C144.066 19.5922 144.545 19.7087 145.099 19.7087C145.467 19.7087 145.803 19.657 146.109 19.5534C146.414 19.4498 146.676 19.2945 146.893 19.0874C147.111 18.8803 147.276 18.6265 147.39 18.3262L150.45 18.5282C150.295 19.2634 149.977 19.9055 149.495 20.4544C149.019 20.9981 148.403 21.4227 147.647 21.7282C146.896 22.0285 146.028 22.1786 145.045 22.1786Z" fill="white"/>
<path d="M130.367 18.5126L130.375 14.5437H130.856L134.678 10.0155H138.476L133.342 16.0117H132.557L130.367 18.5126ZM127.369 21.9456V6.03885H130.678V21.9456H127.369ZM134.825 21.9456L131.315 16.7495L133.52 14.4117L138.701 21.9456H134.825Z" fill="white"/>
<path d="M118.419 21.9456V10.0155H121.627V12.0971H121.751C121.969 11.3566 122.334 10.7974 122.847 10.4194C123.359 10.0363 123.95 9.84467 124.617 9.84467C124.783 9.84467 124.962 9.85503 125.153 9.87574C125.345 9.89645 125.513 9.92493 125.658 9.96117V12.8971C125.503 12.8505 125.288 12.8091 125.014 12.7728C124.739 12.7366 124.488 12.7185 124.26 12.7185C123.773 12.7185 123.339 12.8246 122.955 13.0369C122.577 13.244 122.277 13.534 122.054 13.9068C121.837 14.2796 121.728 14.7094 121.728 15.1961V21.9456H118.419Z" fill="white"/>
<path d="M109.134 22.1709C108.373 22.1709 107.695 22.0388 107.099 21.7748C106.504 21.5055 106.033 21.1094 105.686 20.5864C105.344 20.0583 105.173 19.4006 105.173 18.6136C105.173 17.9508 105.295 17.3942 105.538 16.9437C105.781 16.4932 106.113 16.1307 106.532 15.8563C106.952 15.5819 107.428 15.3748 107.961 15.235C108.5 15.0951 109.064 14.9968 109.655 14.9398C110.348 14.8673 110.908 14.8 111.332 14.7379C111.757 14.6706 112.065 14.5722 112.256 14.4427C112.448 14.3133 112.544 14.1217 112.544 13.868V13.8214C112.544 13.3295 112.389 12.9489 112.078 12.6796C111.772 12.4104 111.337 12.2757 110.773 12.2757C110.177 12.2757 109.704 12.4078 109.352 12.6718C109 12.9307 108.766 13.257 108.653 13.6505L105.592 13.4019C105.748 12.677 106.053 12.0505 106.509 11.5223C106.965 10.989 107.552 10.5799 108.272 10.2951C108.997 10.0052 109.836 9.8602 110.789 9.8602C111.451 9.8602 112.086 9.93787 112.691 10.0932C113.302 10.2485 113.844 10.4893 114.315 10.8155C114.791 11.1418 115.166 11.5612 115.441 12.0738C115.715 12.5812 115.853 13.1896 115.853 13.899V21.9456H112.715V20.2913H112.622C112.43 20.6641 112.174 20.9929 111.853 21.2777C111.532 21.5573 111.146 21.7773 110.695 21.9379C110.245 22.0932 109.724 22.1709 109.134 22.1709ZM110.082 19.8874C110.568 19.8874 110.998 19.7916 111.371 19.6C111.744 19.4032 112.036 19.1392 112.249 18.8078C112.461 18.4764 112.567 18.101 112.567 17.6816V16.4155C112.464 16.4829 112.321 16.545 112.14 16.6019C111.964 16.6537 111.765 16.7029 111.542 16.7495C111.319 16.7909 111.097 16.8298 110.874 16.866C110.651 16.8971 110.449 16.9256 110.268 16.9515C109.88 17.0084 109.541 17.099 109.251 17.2233C108.961 17.3476 108.735 17.5159 108.575 17.7282C108.414 17.9353 108.334 18.1942 108.334 18.5049C108.334 18.9553 108.497 19.2997 108.823 19.5379C109.155 19.7709 109.574 19.8874 110.082 19.8874Z" fill="white"/>
<path d="M85.7806 6.03885H89.9282L94.3088 16.7262H94.4952L98.8758 6.03885H103.023V21.9456H99.7612V11.5922H99.6292L95.5127 21.868H93.2913L89.1748 11.5534H89.0428V21.9456H85.7806V6.03885Z" fill="white"/>
<path d="M76.7692 21.9456V10.0155H79.9769V12.0971H80.1012C80.3187 11.3566 80.6837 10.7974 81.1963 10.4194C81.709 10.0363 82.2993 9.84467 82.9672 9.84467C83.1329 9.84467 83.3116 9.85503 83.5031 9.87574C83.6947 9.89645 83.863 9.92493 84.008 9.96117V12.8971C83.8527 12.8505 83.6378 12.8091 83.3633 12.7728C83.0889 12.7366 82.8378 12.7185 82.6099 12.7185C82.1232 12.7185 81.6883 12.8246 81.3051 13.0369C80.9271 13.244 80.6268 13.534 80.4041 13.9068C80.1866 14.2796 80.0779 14.7094 80.0779 15.1961V21.9456H76.7692Z" fill="white"/>
<path d="M67.4836 22.1709C66.7225 22.1709 66.0441 22.0388 65.4487 21.7748C64.8532 21.5055 64.382 21.1094 64.0351 20.5864C63.6933 20.0583 63.5225 19.4006 63.5225 18.6136C63.5225 17.9508 63.6441 17.3942 63.8875 16.9437C64.1309 16.4932 64.4623 16.1307 64.8817 15.8563C65.3011 15.5819 65.7775 15.3748 66.3108 15.235C66.8493 15.0951 67.4137 14.9968 68.004 14.9398C68.6979 14.8673 69.2571 14.8 69.6817 14.7379C70.1063 14.6706 70.4144 14.5722 70.606 14.4427C70.7975 14.3133 70.8933 14.1217 70.8933 13.868V13.8214C70.8933 13.3295 70.738 12.9489 70.4273 12.6796C70.1218 12.4104 69.6869 12.2757 69.1225 12.2757C68.527 12.2757 68.0532 12.4078 67.7011 12.6718C67.349 12.9307 67.116 13.257 67.0021 13.6505L63.9419 13.4019C64.0972 12.677 64.4027 12.0505 64.8584 11.5223C65.314 10.989 65.9017 10.5799 66.6215 10.2951C67.3464 10.0052 68.1852 9.8602 69.138 9.8602C69.8008 9.8602 70.4351 9.93787 71.0409 10.0932C71.6519 10.2485 72.193 10.4893 72.6642 10.8155C73.1406 11.1418 73.516 11.5612 73.7904 12.0738C74.0649 12.5812 74.2021 13.1896 74.2021 13.899V21.9456H71.0642V20.2913H70.971C70.7794 20.6641 70.5231 20.9929 70.2021 21.2777C69.881 21.5573 69.4953 21.7773 69.0448 21.9379C68.5943 22.0932 68.0739 22.1709 67.4836 22.1709ZM68.4312 19.8874C68.9179 19.8874 69.3477 19.7916 69.7205 19.6C70.0933 19.4032 70.3859 19.1392 70.5982 18.8078C70.8105 18.4764 70.9166 18.101 70.9166 17.6816V16.4155C70.8131 16.4829 70.6707 16.545 70.4894 16.6019C70.3134 16.6537 70.114 16.7029 69.8914 16.7495C69.6687 16.7909 69.4461 16.8298 69.2234 16.866C69.0008 16.8971 68.7988 16.9256 68.6176 16.9515C68.2293 17.0084 67.8901 17.099 67.6001 17.2233C67.3102 17.3476 67.0849 17.5159 66.9244 17.7282C66.7639 17.9353 66.6836 18.1942 66.6836 18.5049C66.6836 18.9553 66.8467 19.2997 67.1729 19.5379C67.5043 19.7709 67.9238 19.8874 68.4312 19.8874Z" fill="white"/>
<path d="M53.7417 15.0486V21.9456H50.433V6.03885H53.6485V12.1204H53.7883C54.0576 11.4162 54.4925 10.8647 55.0932 10.466C55.6938 10.0621 56.4472 9.8602 57.3534 9.8602C58.1818 9.8602 58.9042 10.0414 59.5204 10.4039C60.1417 10.7612 60.6233 11.2764 60.965 11.9495C61.3119 12.6175 61.4828 13.4175 61.4776 14.3495V21.9456H58.1689V14.9398C58.1741 14.2045 57.9877 13.6324 57.6097 13.2233C57.2369 12.8142 56.7139 12.6097 56.0407 12.6097C55.5903 12.6097 55.1916 12.7055 54.8446 12.8971C54.5029 13.0887 54.2336 13.3683 54.0369 13.7359C53.8453 14.0984 53.7469 14.5359 53.7417 15.0486Z" fill="white"/>
<path d="M48.0836 11.6078H44.6817C44.6195 11.1676 44.4927 10.7767 44.3011 10.435C44.1095 10.088 43.8635 9.79288 43.5632 9.54952C43.2629 9.30615 42.916 9.11975 42.5224 8.9903C42.1341 8.86085 41.7121 8.79612 41.2564 8.79612C40.4331 8.79612 39.716 9.00065 39.105 9.40971C38.494 9.8136 38.0202 10.4039 37.6836 11.1806C37.347 11.9521 37.1788 12.8893 37.1788 13.9922C37.1788 15.1262 37.347 16.079 37.6836 16.8505C38.0254 17.622 38.5017 18.2045 39.1127 18.5981C39.7237 18.9916 40.4305 19.1883 41.2331 19.1883C41.6836 19.1883 42.1004 19.1288 42.4836 19.0097C42.872 18.8906 43.2163 18.7172 43.5166 18.4893C43.8169 18.2563 44.0655 17.9741 44.2622 17.6427C44.4642 17.3113 44.604 16.9333 44.6817 16.5087L48.0836 16.5243C47.9956 17.2544 47.7755 17.9586 47.4234 18.6369C47.0765 19.31 46.6079 19.9133 46.0176 20.4466C45.4325 20.9748 44.7334 21.3942 43.9205 21.7049C43.1127 22.0104 42.1988 22.1631 41.1788 22.1631C39.76 22.1631 38.4914 21.8421 37.3729 21.2C36.2597 20.5579 35.3794 19.6285 34.7321 18.4117C34.0901 17.1948 33.769 15.7217 33.769 13.9922C33.769 12.2576 34.0953 10.7819 34.7477 9.56505C35.4001 8.34823 36.2855 7.42136 37.404 6.78447C38.5224 6.1424 39.7807 5.82137 41.1788 5.82137C42.1004 5.82137 42.9548 5.95082 43.7419 6.20971C44.5341 6.46861 45.2357 6.84661 45.8467 7.34369C46.4577 7.8356 46.9548 8.43884 47.338 9.1534C47.7263 9.86797 47.9749 10.6861 48.0836 11.6078Z" fill="white"/>
</svg>
