<svg width="24" height="24" viewBox="0 0 24 24" fill="none" xmlns="http://www.w3.org/2000/svg">
<path fill-rule="evenodd" clip-rule="evenodd" d="M9.895 11.23C9.79279 11.2283 9.69127 11.2469 9.59634 11.2848C9.50141 11.3228 9.41499 11.3792 9.3421 11.4509C9.26922 11.5226 9.21134 11.608 9.17183 11.7023C9.13232 11.7966 9.11199 11.8978 9.112 12C9.112 12.42 9.458 12.77 9.895 12.77H16V17.55C16 20 13.975 22 11.472 22H6.517C4.025 22 2 20.01 2 17.56V6.45C2 3.99 4.035 2 6.528 2H11.493C13.975 2 16 3.99 16 6.44V11.23H9.895ZM19.63 8.54L22.55 11.45C22.6224 11.5211 22.6799 11.6059 22.7191 11.6995C22.7584 11.7931 22.7786 11.8935 22.7786 11.995C22.7786 12.0965 22.7584 12.1969 22.7191 12.2905C22.6799 12.3841 22.6224 12.4689 22.55 12.54L19.63 15.45C19.48 15.6 19.28 15.68 19.09 15.68C18.9367 15.6808 18.7867 15.6359 18.659 15.5512C18.5313 15.4665 18.4316 15.3458 18.3726 15.2043C18.3137 15.0628 18.2981 14.907 18.3279 14.7567C18.3577 14.6064 18.4315 14.4683 18.54 14.36L20.14 12.77H16V11.23H20.14L18.54 9.64C18.24 9.34 18.24 8.85 18.54 8.55C18.84 8.24 19.33 8.24 19.63 8.54Z" fill="white" fill-opacity="0.7"/>
</svg>

