<svg width="24" height="24" viewBox="0 0 24 24" fill="none" xmlns="http://www.w3.org/2000/svg">
<path fill-rule="evenodd" clip-rule="evenodd" d="M17.294 7.291C17.2964 7.98679 17.1611 8.67617 16.8958 9.31943C16.6306 9.96269 16.2407 10.5471 15.7486 11.039C15.2565 11.5309 14.6719 11.9206 14.0286 12.1856C13.3852 12.4506 12.6958 12.5856 12 12.583C11.3042 12.5855 10.6149 12.4504 9.97157 12.1853C9.32827 11.9203 8.74376 11.5306 8.25169 11.0387C7.75962 10.5468 7.36972 9.96247 7.10444 9.31927C6.83917 8.67607 6.70375 7.98675 6.706 7.291C6.70375 6.59529 6.83917 5.90601 7.10446 5.26287C7.36975 4.61972 7.75967 4.03542 8.25175 3.54362C8.74383 3.05182 9.32835 2.66223 9.97165 2.39731C10.6149 2.13238 11.3043 1.99735 12 2C12.6957 1.99722 13.3852 2.13216 14.0285 2.39704C14.6719 2.66192 15.2564 3.05149 15.7485 3.54332C16.2407 4.03515 16.6306 4.61951 16.8958 5.26271C17.161 5.90592 17.2964 6.59525 17.294 7.291ZM12 22C7.662 22 4 21.295 4 18.575C4 15.854 7.685 15.174 12 15.174C16.339 15.174 20 15.879 20 18.599C20 21.32 16.315 22 12 22Z" fill="white" fill-opacity="0.7"/>
</svg>

