<svg width="16" height="17" viewBox="0 0 16 17" xmlns="http://www.w3.org/2000/svg">
<path d="M14.0667 7.53334L8.46671 1.93334C8.33337 1.8 8.20004 1.73334 8.00004 1.73334H2.00004C1.60004 1.73334 1.33337 2 1.33337 2.4V8.4C1.33337 8.6 1.40004 8.73334 1.53337 8.86667L7.13337 14.4667C7.93337 15.2667 9.20004 15.2667 9.93337 14.4667L14.0667 10.3333C14.8667 9.6 14.8667 8.33334 14.0667 7.53334ZM5.00004 6.4C4.46671 6.4 4.00004 5.93334 4.00004 5.4C4.00004 4.86667 4.46671 4.4 5.00004 4.4C5.53337 4.4 6.00004 4.86667 6.00004 5.4C6.00004 5.93334 5.53337 6.4 5.00004 6.4Z"/>
</svg>
