<svg width="24" height="24" viewBox="0 0 24 24" xmlns="http://www.w3.org/2000/svg">
<path d="M8.25884 21.2466C8.90577 20.5996 9.27741 19.7736 9.37376 18.9201C9.50452 17.7844 9.126 16.6074 8.25884 15.7401C7.74268 15.2238 7.10952 14.8797 6.44195 14.7214C5.16874 14.3979 3.7579 14.7351 2.7531 15.7401C2.058 16.4353 1.67948 17.3232 1.6313 18.2387C1.59689 18.631 1.6313 19.0371 1.73453 19.4295C1.89282 20.0971 2.23693 20.7304 2.7531 21.2466C4.27406 22.7678 6.73788 22.7678 8.25884 21.2466ZM6.96499 17.7775C7.36416 17.7775 7.69451 18.1079 7.69451 18.5071C7.68762 18.9132 7.36416 19.2367 6.95811 19.2436L6.23548 19.2367L6.24236 19.9319C6.23548 20.3381 5.91202 20.6616 5.50597 20.6685C5.09992 20.6616 4.77646 20.3381 4.76958 19.9319L4.77646 19.2367L4.05383 19.2436C3.64778 19.2367 3.32432 18.9132 3.31744 18.5071C3.32432 18.3075 3.4069 18.1285 3.53766 17.9978C3.66843 17.867 3.84736 17.7844 4.04695 17.7775L4.77646 17.7775L4.77646 17.0204C4.77646 16.8139 4.85905 16.6349 4.98981 16.5041C5.12057 16.3733 5.2995 16.2907 5.50597 16.2907C5.90514 16.2907 6.23548 16.6211 6.23548 17.0204L6.23548 17.7775L6.96499 17.7775Z"/>
<path d="M15.0945 3.8457V7.54479H13.6345V3.8457C13.6345 3.58287 13.4009 3.45632 13.2452 3.45632C13.1966 3.45632 13.1479 3.46605 13.0992 3.48552L5.38094 6.39612C4.86509 6.59081 4.53417 7.07754 4.53417 7.6324V8.28461C3.64847 8.94655 3.07422 10.0076 3.07422 11.2049V7.6324C3.07422 6.474 3.78473 5.44215 4.86509 5.0333L12.5931 2.11296C12.8072 2.03509 13.0311 1.99615 13.2452 1.99615C14.2185 1.99615 15.0945 2.78464 15.0945 3.8457Z"/>
<path d="M21.5683 14.1164V15.0898C21.5683 15.3526 21.3639 15.5668 21.0914 15.5765H19.6703C19.1544 15.5765 18.6872 15.1969 18.6482 14.6907C18.619 14.389 18.7359 14.1067 18.9305 13.912C19.1057 13.7271 19.3491 13.6298 19.6119 13.6298H21.0817C21.3639 13.6395 21.5683 13.8536 21.5683 14.1164Z"/>
<path d="M19.6006 12.6061H20.5934C21.1287 12.6061 21.5667 12.1681 21.5667 11.6327V11.2044C21.5667 9.18933 19.9218 7.5442 17.9071 7.5442H6.73359C5.90628 7.5442 5.14711 7.81677 4.53393 8.28402C3.64822 8.94597 3.07397 10.007 3.07397 11.2044V12.9371C3.07397 13.307 3.4633 13.5406 3.81368 13.4238C4.35873 13.2389 4.93298 13.1415 5.50723 13.1415C8.45633 13.1415 10.8604 15.5459 10.8604 18.4955C10.8604 19.1963 10.6755 19.9654 10.3835 20.6468C10.2277 20.9972 10.4711 21.4158 10.8507 21.4158H17.9071C19.9218 21.4158 21.5667 19.7707 21.5667 17.7556V17.5707C21.5667 17.0353 21.1287 16.5972 20.5934 16.5972H19.7466C18.8123 16.5972 17.9168 16.0229 17.6735 15.1176C17.4788 14.3778 17.7124 13.6574 18.1991 13.1902C18.5592 12.8203 19.0556 12.6061 19.6006 12.6061ZM14.2669 12.4114H9.40043C9.00138 12.4114 8.67046 12.0805 8.67046 11.6813C8.67046 11.2822 9.00138 10.9513 9.40043 10.9513H14.2669C14.666 10.9513 14.9969 11.2822 14.9969 11.6813C14.9969 12.0805 14.666 12.4114 14.2669 12.4114Z"/>
</svg>
