<svg width="1440" height="267" viewBox="0 0 1440 267" fill="none" xmlns="http://www.w3.org/2000/svg">
<g clip-path="url(#clip0_2684_172971)">
<rect width="1440" height="267" fill="url(#paint0_radial_2684_172971)"/>
<path d="M1447.45 -199.594H-6.62536C-7.06827 -199.594 -7.42773 -199.954 -7.42773 -200.397C-7.42773 -200.84 -7.06827 -201.199 -6.62536 -201.199H1447.45C1447.9 -201.199 1448.26 -200.84 1448.26 -200.397C1448.26 -199.954 1447.9 -199.594 1447.45 -199.594ZM1447.45 -115.116H-6.62536C-7.06827 -115.116 -7.42773 -115.475 -7.42773 -115.918C-7.42773 -116.361 -7.06827 -116.721 -6.62536 -116.721H1447.45C1447.9 -116.721 1448.26 -116.361 1448.26 -115.918C1448.26 -115.475 1447.9 -115.116 1447.45 -115.116ZM1447.45 -30.6377H-6.62536C-7.06827 -30.6377 -7.42773 -30.9972 -7.42773 -31.4401C-7.42773 -31.883 -7.06827 -32.2425 -6.62536 -32.2425H1447.45C1447.9 -32.2425 1448.26 -31.883 1448.26 -31.4401C1448.26 -30.9972 1447.9 -30.6377 1447.45 -30.6377ZM1447.45 53.8406H-6.62536C-7.06827 53.8406 -7.42773 53.4811 -7.42773 53.0382C-7.42773 52.5953 -7.06827 52.2358 -6.62536 52.2358H1447.45C1447.9 52.2358 1448.26 52.5953 1448.26 53.0382C1448.26 53.4811 1447.9 53.8406 1447.45 53.8406ZM1447.45 138.319H-6.62536C-7.06827 138.319 -7.42773 137.959 -7.42773 137.516C-7.42773 137.073 -7.06827 136.714 -6.62536 136.714H1447.45C1447.9 136.714 1448.26 137.073 1448.26 137.516C1448.26 137.959 1447.9 138.319 1447.45 138.319ZM1447.45 222.797H-6.62536C-7.06827 222.797 -7.42773 222.437 -7.42773 221.994C-7.42773 221.551 -7.06827 221.192 -6.62536 221.192H1447.45C1447.9 221.192 1448.26 221.551 1448.26 221.994C1448.26 222.437 1447.9 222.797 1447.45 222.797ZM1447.45 307.276H-6.62536C-7.06827 307.276 -7.42773 306.916 -7.42773 306.473C-7.42773 306.03 -7.06827 305.671 -6.62536 305.671H1447.45C1447.9 305.671 1448.26 306.03 1448.26 306.473C1448.26 306.916 1447.9 307.276 1447.45 307.276ZM1447.45 391.753H-6.62536C-7.06827 391.753 -7.42773 391.394 -7.42773 390.951C-7.42773 390.508 -7.06827 390.149 -6.62536 390.149H1447.45C1447.9 390.149 1448.26 390.508 1448.26 390.951C1448.26 391.394 1447.9 391.753 1447.45 391.753ZM1447.45 476.232H-6.62536C-7.06827 476.232 -7.42773 475.872 -7.42773 475.429C-7.42773 474.986 -7.06827 474.627 -6.62536 474.627H1447.45C1447.9 474.627 1448.26 474.986 1448.26 475.429C1448.26 475.872 1447.9 476.232 1447.45 476.232ZM1447.45 560.71H-6.62536C-7.06827 560.71 -7.42773 560.351 -7.42773 559.908C-7.42773 559.465 -7.06827 559.105 -6.62536 559.105H1447.45C1447.9 559.105 1448.26 559.465 1448.26 559.908C1448.26 560.351 1447.9 560.71 1447.45 560.71Z" fill="url(#paint1_radial_2684_172971)" fill-opacity="0.15"/>
<path d="M80.4241 636.226C79.9812 636.226 79.6217 635.867 79.6217 635.424V-268.198C79.6217 -268.641 79.9812 -269 80.4241 -269C80.867 -269 81.2265 -268.641 81.2265 -268.198V635.424C81.2265 635.867 80.8674 636.226 80.4241 636.226ZM166.74 636.226C166.297 636.226 165.937 635.867 165.937 635.424V-268.198C165.937 -268.641 166.297 -269 166.74 -269C167.183 -269 167.542 -268.641 167.542 -268.198V635.424C167.542 635.867 167.183 636.226 166.74 636.226ZM253.056 636.226C252.613 636.226 252.253 635.867 252.253 635.424V-268.198C252.253 -268.641 252.613 -269 253.056 -269C253.499 -269 253.858 -268.641 253.858 -268.198V635.424C253.858 635.867 253.499 636.226 253.056 636.226ZM339.371 636.226C338.928 636.226 338.569 635.867 338.569 635.424V-268.198C338.569 -268.641 338.928 -269 339.371 -269C339.814 -269 340.173 -268.641 340.173 -268.198V635.424C340.173 635.867 339.814 636.226 339.371 636.226ZM425.687 636.226C425.244 636.226 424.884 635.867 424.884 635.424V-268.198C424.884 -268.641 425.244 -269 425.687 -269C426.13 -269 426.489 -268.641 426.489 -268.198V635.424C426.489 635.867 426.13 636.226 425.687 636.226ZM512.002 636.226C511.56 636.226 511.2 635.867 511.2 635.424V-268.198C511.2 -268.641 511.56 -269 512.002 -269C512.445 -269 512.805 -268.641 512.805 -268.198V635.424C512.805 635.867 512.446 636.226 512.002 636.226ZM598.318 636.226C597.875 636.226 597.516 635.867 597.516 635.424V-268.198C597.516 -268.641 597.875 -269 598.318 -269C598.761 -269 599.121 -268.641 599.121 -268.198V635.424C599.121 635.867 598.761 636.226 598.318 636.226ZM684.634 636.226C684.191 636.226 683.832 635.867 683.832 635.424V-268.198C683.832 -268.641 684.191 -269 684.634 -269C685.077 -269 685.436 -268.641 685.436 -268.198V635.424C685.436 635.867 685.077 636.226 684.634 636.226ZM770.949 636.226C770.506 636.226 770.147 635.867 770.147 635.424V-268.198C770.147 -268.641 770.506 -269 770.949 -269C771.392 -269 771.752 -268.641 771.752 -268.198V635.424C771.752 635.867 771.393 636.226 770.949 636.226ZM857.265 636.226C856.822 636.226 856.463 635.867 856.463 635.424V-268.198C856.463 -268.641 856.822 -269 857.265 -269C857.708 -269 858.067 -268.641 858.067 -268.198V635.424C858.067 635.867 857.708 636.226 857.265 636.226ZM943.581 636.226C943.138 636.226 942.778 635.867 942.778 635.424V-268.198C942.778 -268.641 943.138 -269 943.581 -269C944.024 -269 944.383 -268.641 944.383 -268.198V635.424C944.383 635.867 944.024 636.226 943.581 636.226ZM1029.9 636.226C1029.45 636.226 1029.09 635.867 1029.09 635.424V-268.198C1029.09 -268.641 1029.45 -269 1029.9 -269C1030.34 -269 1030.7 -268.641 1030.7 -268.198V635.424C1030.7 635.867 1030.34 636.226 1029.9 636.226ZM1116.21 636.226C1115.77 636.226 1115.41 635.867 1115.41 635.424V-268.198C1115.41 -268.641 1115.77 -269 1116.21 -269C1116.66 -269 1117.01 -268.641 1117.01 -268.198V635.424C1117.01 635.867 1116.66 636.226 1116.21 636.226ZM1202.53 636.226C1202.09 636.226 1201.73 635.867 1201.73 635.424V-268.198C1201.73 -268.641 1202.09 -269 1202.53 -269C1202.97 -269 1203.33 -268.641 1203.33 -268.198V635.424C1203.33 635.867 1202.97 636.226 1202.53 636.226ZM1288.84 636.226C1288.4 636.226 1288.04 635.867 1288.04 635.424V-268.198C1288.04 -268.641 1288.4 -269 1288.84 -269C1289.29 -269 1289.65 -268.641 1289.65 -268.198V635.424C1289.65 635.867 1289.29 636.226 1288.84 636.226ZM1375.16 636.226C1374.72 636.226 1374.36 635.867 1374.36 635.424V-268.198C1374.36 -268.641 1374.72 -269 1375.16 -269C1375.6 -269 1375.96 -268.641 1375.96 -268.198V635.424C1375.96 635.867 1375.6 636.226 1375.16 636.226Z" fill="url(#paint2_radial_2684_172971)" fill-opacity="0.15"/>
<path d="M236.5 22L237.377 27.6232L243 28.5L237.377 29.3768L236.5 35L235.623 29.3768L230 28.5L235.623 27.6232L236.5 22Z" fill="#FFD166"/>
<path d="M726.5 157L727.377 162.623L733 163.5L727.377 164.377L726.5 170L725.623 164.377L720 163.5L725.623 162.623L726.5 157Z" fill="#FFD166"/>
<path d="M614.5 200L615.782 208.218L624 209.5L615.782 210.781L614.5 219L613.218 210.781L605 209.5L613.218 208.218L614.5 200Z" fill="#FFD166"/>
<path d="M1243.5 193L1246.13 209.87L1263 212.5L1246.13 215.13L1243.5 232L1240.87 215.13L1224 212.5L1240.87 209.87L1243.5 193Z" fill="#FFD166"/>
<path d="M1203.5 232L1204.65 239.353L1212 240.5L1204.65 241.647L1203.5 249L1202.35 241.647L1195 240.5L1202.35 239.353L1203.5 232Z" fill="#FFD166"/>
<path d="M205.5 29L207.726 43.2742L222 45.4999L207.726 47.7258L205.5 62L203.274 47.7258L189 45.4999L203.274 43.2742L205.5 29Z" fill="#FFD166"/>
<path opacity="0.5" d="M1600.88 -4.492C1489.89 -13.8317 1383.31 -27.6099 1282.35 -47.1209C1274.58 -48.6435 1266.87 -50.156 1259.17 -51.7343C1234.76 -56.6713 1210.74 -62.0179 1187.04 -67.6526C1194.53 -63.8195 1202.11 -60.1734 1209.85 -56.6386C1201.88 -54.6272 1195.52 -48.0653 1194.21 -39.5211C1192.82 -30.3853 1197.6 -21.719 1205.48 -17.7595C1203.16 -12.7999 1201.45 -7.34481 1200.57 -1.62672C1195.65 30.6443 1218.05 60.7644 1250.54 65.7226C1266.06 68.0903 1281.01 64.3202 1293.04 56.2018C1295.42 65.0397 1302.89 72.0984 1312.57 73.5757C1323.45 75.2352 1333.71 69.3361 1337.93 59.8922C1344.72 68.3261 1354.52 74.3284 1366.12 76.0992C1379.45 78.133 1392.28 74.1048 1401.78 66.0721C1401.86 66.0165 1401.93 65.9609 1402.01 65.9052C1409.74 59.2829 1415.23 49.9655 1416.88 39.1208C1417.37 35.966 1417.5 32.8921 1417.28 29.8333C1426.23 29.9201 1434.24 24.0815 1436.77 15.5222C1437.97 16.1088 1439.33 16.5184 1440.72 16.7309C1448.15 17.8642 1455.09 12.804 1456.22 5.44283C1456.53 3.40535 1456.36 1.42847 1455.82 -0.401817C1505.27 0.0836619 1553.65 -1.27636 1600.88 -4.492Z" fill="url(#paint3_linear_2684_172971)"/>
<g opacity="0.5">
<path d="M197.676 221.128C197.676 242.591 180.275 259.992 158.812 259.992C144.771 259.992 132.483 252.528 125.638 241.374C118.587 251.188 107.082 257.6 94.0727 257.6C81.4959 257.6 70.3005 251.6 63.208 242.343C56.1774 249.374 46.4665 253.724 35.7453 253.724C34.7351 253.724 33.7042 253.683 32.7145 253.6C15.5813 231.643 2.4066 206.303 -5.36626 177.439C-9.34546 162.697 -11.9021 147.028 -12.8505 130.431C-3.81993 117.256 11.3134 108.638 28.4879 108.638C52.693 108.638 72.8983 125.812 77.5579 148.636C85.4957 143.337 95.0417 140.265 105.289 140.265C130.277 140.265 150.998 158.574 154.75 182.511C156.091 182.387 157.431 182.305 158.791 182.305C179.285 182.305 196.068 198.139 197.553 218.262C197.635 219.169 197.676 220.138 197.676 221.128Z" fill="url(#paint4_linear_2684_172971)"/>
<path d="M349.732 359.761C279.014 372.317 35.9461 380.619 -36.0001 342.854C-94.3566 312.223 12.7226 244.63 -5.36622 177.418C18.9626 185.273 34.6939 205.128 41.3121 232.137C55.4559 231.787 68.4862 237.003 79.7435 251.271C95.3304 237.374 115.123 235.23 137.7 240.756C186.522 188.16 252.622 232.261 242.623 285.496C252.396 290.836 265.529 304.464 268.127 319.268C285.734 316.216 301.363 323.432 314.682 342.854C332.743 339.762 344.289 345.617 349.732 359.761Z" fill="url(#paint5_linear_2684_172971)"/>
</g>
</g>
<defs>
<radialGradient id="paint0_radial_2684_172971" cx="0" cy="0" r="1" gradientUnits="userSpaceOnUse" gradientTransform="translate(720 133.5) scale(720 133.5)">
<stop stop-color="#426AFF"/>
<stop offset="1" stop-color="#4A70FF"/>
</radialGradient>
<radialGradient id="paint1_radial_2684_172971" cx="0" cy="0" r="1" gradientUnits="userSpaceOnUse" gradientTransform="translate(913 175.873) rotate(89.5864) scale(346.36 661.736)">
<stop stop-color="white"/>
<stop offset="1" stop-color="white" stop-opacity="0"/>
</radialGradient>
<radialGradient id="paint2_radial_2684_172971" cx="0" cy="0" r="1" gradientUnits="userSpaceOnUse" gradientTransform="translate(899.295 179) rotate(89.69) scale(411.506 589.307)">
<stop stop-color="white"/>
<stop offset="1" stop-color="white" stop-opacity="0"/>
</radialGradient>
<linearGradient id="paint3_linear_2684_172971" x1="1292" y1="70" x2="1385" y2="-59" gradientUnits="userSpaceOnUse">
<stop stop-color="white"/>
<stop offset="1" stop-color="#6B89FF"/>
</linearGradient>
<linearGradient id="paint4_linear_2684_172971" x1="124" y1="146" x2="33.4999" y2="245" gradientUnits="userSpaceOnUse">
<stop stop-color="white"/>
<stop offset="1" stop-color="#6B89FF"/>
</linearGradient>
<linearGradient id="paint5_linear_2684_172971" x1="139.5" y1="237" x2="125.5" y2="324.5" gradientUnits="userSpaceOnUse">
<stop stop-color="white"/>
<stop offset="1" stop-color="#6B89FF"/>
</linearGradient>
<clipPath id="clip0_2684_172971">
<rect width="1440" height="267" fill="white"/>
</clipPath>
</defs>
</svg>
